<svg xmlns="http://www.w3.org/2000/svg" viewBox="0 0 48 48"><defs><style>.cls-1{fill:#201602;}</style></defs><title>Asset 2ldpi</title><g id="Layer_2" data-name="Layer 2"><g id="layer_1-2" data-name="layer 1"><path class="cls-1" d="M48,20H46V2H2V20H0V1A1,1,0,0,1,1,0H47a1,1,0,0,1,1,1Z"/><path class="cls-1" d="M47,48H1a1,1,0,0,1-1-1V26H2V46H46V26h2V47A1,1,0,0,1,47,48Z"/><rect class="cls-1" x="4" y="4" width="2" height="2"/><rect class="cls-1" x="8" y="4" width="2" height="2"/><rect class="cls-1" x="12" y="4" width="2" height="2"/><rect class="cls-1" x="1" y="8" width="46" height="2"/><rect class="cls-1" x="3" y="40" width="42" height="2"/><path class="cls-1" d="M27,31a1,1,0,0,1-.94-.65L24,24.85l-2.06,5.5a1,1,0,0,1-1.88,0l-3-8,1.88-.7L21,27.15l2.06-5.5a1,1,0,0,1,1.88,0L27,27.15l2.06-5.5,1.88.7-3,8A1,1,0,0,1,27,31Z"/><path class="cls-1" d="M12,31a1,1,0,0,1-.94-.65L9,24.85l-2.06,5.5a1,1,0,0,1-1.88,0l-3-8,1.88-.7L6,27.15l2.06-5.5a1,1,0,0,1,1.88,0L12,27.15l2.06-5.5,1.88.7-3,8A1,1,0,0,1,12,31Z"/><path class="cls-1" d="M42,31a1,1,0,0,1-.94-.65L39,24.85l-2.06,5.5a1,1,0,0,1-1.88,0l-3-8,1.88-.7L36,27.15l2.06-5.5a1,1,0,0,1,1.88,0L42,27.15l2.06-5.5,1.88.7-3,8A1,1,0,0,1,42,31Z"/></g></g></svg>